<svg width="500" height="500" viewBox="0 0 500 500" fill="none" xmlns="http://www.w3.org/2000/svg">
<rect width="500" height="500" fill="white"/>
<path d="M442.448 350.19L457.917 392.539H426.5L442.448 350.19ZM425.881 333.7L390.233 424.087H415.406L421.044 408.116H463.232L468.568 424.087H495.895L459.981 333.689L425.881 333.7ZM354.312 424.12H379.851V333.673L354.307 333.667L354.312 424.12ZM177.015 333.667L155.708 405.354L135.296 333.673L107.74 333.667L136.892 424.12H173.684L203.071 333.667H177.015V333.667ZM280.247 353.363H291.224C307.148 353.363 317.447 360.517 317.447 379.084C317.447 397.655 307.148 404.81 291.224 404.81H280.247V353.363ZM254.923 333.667V424.12H296.326C318.386 424.12 325.589 420.451 333.378 412.219C338.879 406.439 342.437 393.755 342.437 379.888C342.437 367.17 339.426 355.834 334.176 348.77C324.716 336.137 311.089 333.667 290.752 333.667H254.923V333.667ZM13 333.541V424.12H38.7551V355.343L58.7111 355.349C65.3188 355.349 70.029 356.997 73.211 360.399C77.2469 364.7 78.8948 371.644 78.8948 384.346V424.12H103.851V374.075C103.851 338.357 81.1018 333.541 58.8425 333.541H13V333.541ZM213.82 333.667L213.83 424.12H239.357V333.667H213.82V333.667Z" fill="black"/>
<path d="M109.118 153.565C109.118 153.565 141.966 105.066 207.551 100.048V82.4532C134.907 88.2915 72 149.862 72 149.862C72 149.862 107.629 252.934 207.551 262.371V243.669C134.224 234.438 109.118 153.565 109.118 153.565ZM207.551 206.474V223.602C152.132 213.715 136.749 156.065 136.749 156.065C136.749 156.065 163.358 126.567 207.551 121.783V140.578C207.517 140.578 207.494 140.567 207.466 140.567C184.271 137.782 166.152 159.466 166.152 159.466C166.152 159.466 176.308 195.969 207.551 206.474ZM207.551 50V82.4532C209.684 82.2896 211.816 82.1509 213.96 82.0778C296.549 79.2923 350.361 149.862 350.361 149.862C350.361 149.862 288.556 225.069 224.166 225.069C218.265 225.069 212.74 224.521 207.551 223.601V243.669C211.988 244.233 216.589 244.564 221.39 244.564C281.309 244.564 324.641 213.941 366.599 177.698C373.556 183.273 402.036 196.837 407.89 202.775C367.996 236.199 275.019 263.143 222.308 263.143C217.227 263.143 212.347 262.835 207.551 262.371V290.571H435.299V50H207.551ZM207.551 121.783V100.05C209.662 99.9024 211.788 99.7885 213.96 99.7198C273.35 97.8531 312.313 150.792 312.313 150.792C312.313 150.792 270.229 209.282 225.106 209.282C218.612 209.282 212.79 208.238 207.55 206.474V140.578C230.67 143.373 235.323 153.594 249.223 176.782L280.138 150.696C280.138 150.696 257.571 121.078 219.529 121.078C215.394 121.076 211.437 121.367 207.551 121.783Z" fill="#77B900"/>
<path d="M475 249.589C475 372.928 374.188 473.179 249.5 473.179C124.812 473.179 24 372.928 24 249.589C24 126.251 124.812 26 249.5 26C374.188 26 475 126.251 475 249.589Z" stroke="#FF0000" stroke-width="40"/>
<line y1="-20" x2="452.848" y2="-20" transform="matrix(0.709731 0.704473 -0.709731 0.704473 89.0559 105.65)" stroke="#FF0000" stroke-width="40"/>
</svg>
